<svg xmlns="http://www.w3.org/2000/svg" xmlns:xlink="http://www.w3.org/1999/xlink" xmlns:lucid="lucid" width="1260" height="1020"><g transform="translate(-100 -40)" lucid:page-tab-id="0_0"><path d="M600 60h180v40H600z" stroke="#000" stroke-width="2" fill="#c7e8ac"/><use xlink:href="#a" transform="matrix(1,0,0,1,612,72) translate(15.674999999999997 14.4)"/><use xlink:href="#b" transform="matrix(1,0,0,1,612,72) translate(75.475 14.4)"/><use xlink:href="#c" transform="matrix(1,0,0,1,612,72) translate(103.425 14.4)"/><path d="M1000 60h100v40h-100z" stroke="#000" stroke-width="2" fill="#fff"/><use xlink:href="#d" transform="matrix(1,0,0,1,1012,72) translate(2.0249999999999986 14.4)"/><path d="M1120 60h220v40h-220z" stroke="#000" stroke-width="2" fill="#fff"/><use xlink:href="#e" transform="matrix(1,0,0,1,1132,72) translate(1.2500000000000142 14.4)"/><path d="M880 60h100v40H880z" stroke="#000" stroke-width="2" fill="#fff"/><use xlink:href="#f" transform="matrix(1,0,0,1,892,72) translate(4.649999999999999 14.4)"/><path d="M140 160h120v40H140z" stroke="#000" stroke-width="2" fill="#e5e5e5"/><use xlink:href="#g" transform="matrix(1,0,0,1,152,172) translate(18.049999999999997 14.4)"/><path d="M120 280h160v120H120z" stroke="#000" stroke-width="2" fill="#e5e5e5"/><use xlink:href="#h" transform="matrix(1,0,0,1,132,292) translate(16.875 20.4)"/><use xlink:href="#i" transform="matrix(1,0,0,1,132,292) translate(75.725 20.4)"/><use xlink:href="#j" transform="matrix(1,0,0,1,132,292) translate(12.049999999999997 42)"/><use xlink:href="#k" transform="matrix(1,0,0,1,132,292) translate(54.949999999999996 42)"/><use xlink:href="#l" transform="matrix(1,0,0,1,132,292) translate(10.049999999999997 63.6)"/><use xlink:href="#m" transform="matrix(1,0,0,1,132,292) translate(70.94999999999999 63.6)"/><use xlink:href="#n" transform="matrix(1,0,0,1,132,292) translate(95.95 63.6)"/><use xlink:href="#o" transform="matrix(1,0,0,1,132,292) translate(62.58 85.20000000000002)"/><path d="M880 220h140v64.4H880z" stroke="#000" stroke-width="2" fill="#99d2f2"/><use xlink:href="#p" transform="matrix(1,0,0,1,892,232) translate(3.299999999999997 14.4)"/><use xlink:href="#q" transform="matrix(1,0,0,1,892,232) translate(8.599999999999994 36)"/><use xlink:href="#r" transform="matrix(1,0,0,1,892,232) translate(70.44999999999999 36)"/><path d="M1080 220h120v40h-120z" stroke="#000" stroke-width="2" fill="#ffeca9"/><use xlink:href="#s" transform="matrix(1,0,0,1,1092,232) translate(23.574999999999996 14.4)"/><path d="M480 160h120v40H480z" stroke="#000" stroke-width="2" fill="#c7e8ac"/><use xlink:href="#t" transform="matrix(1,0,0,1,492,172) translate(29.049999999999997 14.4)"/><path d="M380 240h160v40H380z" stroke="#000" stroke-width="2" fill="#c7e8ac"/><use xlink:href="#u" transform="matrix(1,0,0,1,392,252) translate(15.624999999999993 14.4)"/><use xlink:href="#v" transform="matrix(1,0,0,1,392,252) translate(83.42500000000001 14.4)"/><path d="M560 240h160v40H560z" stroke="#000" stroke-width="2" fill="#99d2f2"/><use xlink:href="#w" transform="matrix(1,0,0,1,572,252) translate(24.049999999999997 14.4)"/><use xlink:href="#x" transform="matrix(1,0,0,1,572,252) translate(60.949999999999996 14.4)"/><path d="M480 320h160v40H480z" stroke="#000" stroke-width="2" fill="#c7e8ac"/><use xlink:href="#u" transform="matrix(1,0,0,1,492,332) translate(15.174999999999997 14.4)"/><use xlink:href="#y" transform="matrix(1,0,0,1,492,332) translate(82.97500000000001 14.4)"/><path d="M640 420h220v40H640z" stroke="#000" stroke-width="2" fill="#ffdba9"/><use xlink:href="#z" transform="matrix(1,0,0,1,652,432) translate(2.4000000000000057 14.4)"/><use xlink:href="#A" transform="matrix(1,0,0,1,652,432) translate(51.60000000000001 14.4)"/><path d="M1080 280h120v64.4h-120z" stroke="#000" stroke-width="2" fill="#ffeca9"/><use xlink:href="#B" transform="matrix(1,0,0,1,1092,292) translate(9.049999999999997 14.4)"/><use xlink:href="#C" transform="matrix(1,0,0,1,1092,292) translate(7.549999999999997 36)"/><path d="M690 102v28H540v10.5" stroke="#000" stroke-width="2" fill="none"/><path d="M691 102.03h-2V101h2z"/><path d="M540 155.76l-4.64-14.26h9.28z" stroke="#000" stroke-width="2"/><path d="M540 202v18h-80v.5" stroke="#000" stroke-width="2" fill="none"/><path d="M541 202.03h-2V201h2z"/><path d="M460 235.76l-4.64-14.26h9.28z" stroke="#000" stroke-width="2"/><path d="M460 282v18h100v.5" stroke="#000" stroke-width="2" fill="none"/><path d="M461 282.03h-2V281h2z"/><path d="M560 315.76l-4.64-14.26h9.28z" stroke="#000" stroke-width="2"/><path d="M560 362v28h190v10.5" stroke="#000" stroke-width="2" fill="none"/><path d="M561 362.03h-2V361h2z"/><path d="M750 415.76l-4.64-14.26h9.28z" stroke="#000" stroke-width="2"/><path d="M540 202v18h100v.5" stroke="#000" stroke-width="2" fill="none"/><path d="M541 202.03h-2V201h2z"/><path d="M640 235.76l-4.64-14.26h9.28z" stroke="#000" stroke-width="2"/><path d="M878 252.2H750v148.3" stroke="#000" stroke-width="2" fill="none"/><path d="M879 253.2h-1.03v-2H879z"/><path d="M750 415.76l-4.64-14.26h9.28z" stroke="#000" stroke-width="2"/><path d="M1140 262v-1" stroke="#000" stroke-width="2" fill="none"/><path d="M1141 262.03h-2V261h2z"/><path d="M1140 275.76l-4.64-14.26h9.28z" stroke="#000" stroke-width="2"/><path d="M1078 312.2H860V340H659.5" stroke="#000" stroke-width="2" fill="none"/><path d="M1079 313.2h-1.03v-2h1.03z"/><path d="M644.24 340l14.26-4.64v9.28z" stroke="#000" stroke-width="2"/><path d="M1078 312.2H970V440h-90.5" stroke="#000" stroke-width="2" fill="none"/><path d="M1079 313.2h-1.03v-2h1.03z"/><path d="M864.24 440l14.26-4.64v9.28z" stroke="#000" stroke-width="2"/><path d="M690 102v58h450v40.5" stroke="#000" stroke-width="2" fill="none"/><path d="M691 102.03h-2V101h2z"/><path d="M1140 215.76l-4.64-14.26h9.28z" stroke="#000" stroke-width="2"/><path d="M690 102v28H200v10.5" stroke="#000" stroke-width="2" fill="none"/><path d="M691 102.03h-2V101h2z"/><path d="M200 155.76l-4.64-14.26h9.28z" stroke="#000" stroke-width="2"/><path d="M200 202v58.5" stroke="#000" stroke-width="2" fill="none"/><path d="M201 202.03h-2V201h2z"/><path d="M200 275.76l-4.64-14.26h9.28z" stroke="#000" stroke-width="2"/><path d="M260 554.13h140v131.74H260z" stroke="#000" stroke-width="2" fill="#c7e8ac"/><use xlink:href="#D" transform="matrix(1,0,0,1,272,566.1333333333333) translate(18.81574074074075 18.0888888888889)"/><use xlink:href="#E" transform="matrix(1,0,0,1,272,566.1333333333333) translate(11.926543209876556 45.022222222222226)"/><use xlink:href="#F" transform="matrix(1,0,0,1,272,566.1333333333333) translate(-0.44907407407406197 71.95555555555556)"/><use xlink:href="#G" transform="matrix(1,0,0,1,272,566.1333333333333) translate(43.69166666666667 98.88888888888889)"/><path d="M520 554.13h140V680H520z" stroke="#000" stroke-width="2" fill="#c7e8ac"/><use xlink:href="#D" transform="matrix(1,0,0,1,532,566.1333333333333) translate(18.81574074074075 17.955555555555552)"/><use xlink:href="#E" transform="matrix(1,0,0,1,532,566.1333333333333) translate(11.926543209876556 44.888888888888886)"/><use xlink:href="#F" transform="matrix(1,0,0,1,532,566.1333333333333) translate(-0.44907407407406197 71.82222222222221)"/><use xlink:href="#H" transform="matrix(1,0,0,1,532,566.1333333333333) translate(16.353086419753097 98.75555555555553)"/><use xlink:href="#I" transform="matrix(1,0,0,1,532,566.1333333333333) translate(51.20432098765433 98.75555555555553)"/><path d="M900 581.07h140v104.8H900z" stroke="#000" stroke-width="2" fill="#99d2f2"/><use xlink:href="#J" transform="matrix(1,0,0,1,912,593.0666666666666) translate(18.81574074074075 18.05555555555556)"/><use xlink:href="#E" transform="matrix(1,0,0,1,912,593.0666666666666) translate(11.926543209876556 44.988888888888894)"/><use xlink:href="#F" transform="matrix(1,0,0,1,912,593.0666666666666) translate(-0.44907407407406197 71.92222222222222)"/><path d="M1100 577.6h140v104.8h-140z" stroke="#000" stroke-width="2" fill="#99d2f2"/><use xlink:href="#K" transform="matrix(1,0,0,1,1112,589.6) translate(28.791049382716054 18.05555555555556)"/><use xlink:href="#E" transform="matrix(1,0,0,1,1112,589.6) translate(11.926543209876556 44.988888888888894)"/><use xlink:href="#F" transform="matrix(1,0,0,1,1112,589.6) translate(-0.44907407407406197 71.92222222222222)"/><path d="M350 720h220v40H350z" stroke="#000" stroke-width="2" fill="#ffdba9"/><use xlink:href="#L" transform="matrix(1,0,0,1,362,732) translate(2.4000000000000057 14.4)"/><use xlink:href="#M" transform="matrix(1,0,0,1,362,732) translate(51.60000000000001 14.4)"/><path d="M350 800h220v60H350z" stroke="#000" stroke-width="2" fill="#c7e8ac"/><use xlink:href="#N" transform="matrix(1,0,0,1,362,812) translate(54.55 14.4)"/><use xlink:href="#O" transform="matrix(1,0,0,1,362,812) translate(16.724999999999994 36)"/><path d="M350 900h220v40H350z" stroke="#000" stroke-width="2" fill="#c7e8ac"/><g><use xlink:href="#P" transform="matrix(1,0,0,1,362,912) translate(30.75 14.4)"/></g><path d="M350 980h220v60H350z" stroke="#000" stroke-width="2" fill="#c7e8ac"/><g><use xlink:href="#Q" transform="matrix(1,0,0,1,362,992) translate(17.125 14.4)"/><use xlink:href="#R" transform="matrix(1,0,0,1,362,992) translate(97.025 14.4)"/><use xlink:href="#S" transform="matrix(1,0,0,1,362,992) translate(107.97500000000001 14.4)"/><use xlink:href="#T" transform="matrix(1,0,0,1,362,992) translate(172.925 14.4)"/><use xlink:href="#U" transform="matrix(1,0,0,1,362,992) translate(43.62499999999999 36)"/></g><path d="M330 687.87v9.06c0 3.32 2.7 6 6 6h121.56" stroke="#5e5e5e" stroke-width="2" fill="none"/><path d="M331 687.9h-2v-1.03h2z" fill="#5e5e5e"/><path d="M459.52 715.8l-6.73-13.4 9.16-1.4z" stroke="#5e5e5e" stroke-width="2" fill="#5e5e5e"/><path d="M590 682v12c0 3.3-2.7 6-6 6H460.5c-.28 0-.5.22-.5.5" stroke="#5e5e5e" stroke-width="2" fill="none"/><path d="M591 682.03h-2V681h2z" fill="#5e5e5e"/><path d="M460 715.76l-4.64-14.26h9.28z" stroke="#5e5e5e" stroke-width="2" fill="#5e5e5e"/><path d="M460 762v18.5" stroke="#5e5e5e" stroke-width="2" fill="none"/><path d="M461 762.03h-2V761h2z" fill="#5e5e5e"/><path d="M460 795.76l-4.64-14.26h9.28z" stroke="#5e5e5e" stroke-width="2" fill="#5e5e5e"/><path d="M460 862v18.5" stroke="#5e5e5e" stroke-width="2" fill="none"/><path d="M461 862.03h-2V861h2z" fill="#5e5e5e"/><path d="M460 895.76l-4.64-14.26h9.28z" stroke="#5e5e5e" stroke-width="2" fill="#5e5e5e"/><path d="M460 942v18.5" stroke="#5e5e5e" stroke-width="2" fill="none"/><path d="M461 942.03h-2V941h2z" fill="#5e5e5e"/><path d="M460 975.76l-4.64-14.26h9.28z" stroke="#5e5e5e" stroke-width="2" fill="#5e5e5e"/><path d="M560 362v89.07c0 3.3-2.7 6-6 6H336c-3.3 0-6 2.68-6 6v71.56" stroke="#5e5e5e" stroke-width="2" fill="none"/><path d="M561 362.03h-2V361h2z" fill="#5e5e5e"/><path d="M330 549.9l-4.64-14.27h9.28z" stroke="#5e5e5e" stroke-width="2" fill="#5e5e5e"/><path d="M560 362v89.07c0 3.3 2.7 6 6 6h18c3.3 0 6 2.68 6 6v71.56" stroke="#5e5e5e" stroke-width="2" fill="none"/><path d="M561 362.03h-2V361h2z" fill="#5e5e5e"/><path d="M590 549.9l-4.64-14.27h9.28z" stroke="#5e5e5e" stroke-width="2" fill="#5e5e5e"/><path d="M660 826c0-3.3 2.7-6 6-6h188c3.3 0 6 2.7 6 6v68c0 3.3-2.7 6-6 6H666c-3.3 0-6-2.7-6-6z" stroke="#5e5e5e" stroke-width="3" fill="#99d2f2"/><g><use xlink:href="#V" transform="matrix(1,0,0,1,672,832) translate(48.58641975308642 17.77777777777778)"/><use xlink:href="#W" transform="matrix(1,0,0,1,672,832) translate(2.351851851851862 44.44444444444444)"/></g><defs><path d="M24 0v-248h52v208h133V0H24" id="X"/><path d="M24 0v-248h52V0H24" id="Y"/><path d="M24-248c120-7 223 5 221 122C244-46 201 0 124 0H24v-248zM76-40c74 7 117-18 117-86 0-67-45-88-117-82v168" id="Z"/><path d="M199 0l-22-63H83L61 0H9l90-248h61L250 0h-51zm-33-102l-36-108c-10 38-24 72-36 108h72" id="aa"/><path d="M240-174c0 40-23 61-54 70L253 0h-59l-57-94H76V0H24v-248c93 4 217-23 216 74zM76-134c48-2 112 12 112-38 0-48-66-32-112-35v73" id="ab"/><g id="a"><use transform="matrix(0.05,0,0,0.05,0,0)" xlink:href="#X"/><use transform="matrix(0.05,0,0,0.05,10.950000000000001,0)" xlink:href="#Y"/><use transform="matrix(0.05,0,0,0.05,15.950000000000001,0)" xlink:href="#Z"/><use transform="matrix(0.05,0,0,0.05,28.900000000000002,0)" xlink:href="#aa"/><use transform="matrix(0.05,0,0,0.05,41.85,0)" xlink:href="#ab"/></g><path d="M128-127c34 4 56 21 59 58 7 91-148 94-172 28-4-9-6-17-7-26l51-5c1 24 16 35 40 36 23 0 39-12 38-36-1-31-31-36-65-34v-40c32 2 59-3 59-33 0-20-13-33-34-33s-33 13-35 32l-50-3c6-44 37-68 86-68 50 0 83 20 83 66 0 35-22 52-53 58" id="ac"/><g id="b"><use transform="matrix(0.05,0,0,0.05,0,0)" xlink:href="#ac"/><use transform="matrix(0.05,0,0,0.05,10,0)" xlink:href="#Z"/></g><path d="M88-194c31-1 46 15 58 34l-1-101h50l1 261h-48c-2-10 0-23-3-31C134-8 116 4 84 4 32 4 16-41 15-95c0-56 19-97 73-99zm17 164c33 0 40-30 41-66 1-37-9-64-41-64s-38 30-39 65c0 43 13 65 39 65" id="ad"/><path d="M133-34C117-15 103 5 69 4 32 3 11-16 11-54c-1-60 55-63 116-61 1-26-3-47-28-47-18 1-26 9-28 27l-52-2c7-38 36-58 82-57s74 22 75 68l1 82c-1 14 12 18 25 15v27c-30 8-71 5-69-32zm-48 3c29 0 43-24 42-57-32 0-66-3-65 30 0 17 8 27 23 27" id="ae"/><path d="M115-3C79 11 28 4 28-45v-112H4v-33h27l15-45h31v45h36v33H77v99c-1 23 16 31 38 25v30" id="af"/><g id="c"><use transform="matrix(0.05,0,0,0.05,0,0)" xlink:href="#ad"/><use transform="matrix(0.05,0,0,0.05,10.950000000000001,0)" xlink:href="#ae"/><use transform="matrix(0.05,0,0,0.05,20.950000000000003,0)" xlink:href="#af"/><use transform="matrix(0.05,0,0,0.05,26.900000000000002,0)" xlink:href="#ae"/></g><path d="M101-234c-31-9-42 10-38 44h38v23H63V0H32v-167H5v-23h27c-7-52 17-82 69-68v24" id="ag"/><path d="M100-194c62-1 85 37 85 99 1 63-27 99-86 99S16-35 15-95c0-66 28-99 85-99zM99-20c44 1 53-31 53-75 0-43-8-75-51-75s-53 32-53 75 10 74 51 75" id="ah"/><path d="M117-194c89-4 53 116 60 194h-32v-121c0-31-8-49-39-48C34-167 62-67 57 0H25l-1-190h30c1 10-1 24 2 32 11-22 29-35 61-36" id="ai"/><path d="M96-169c-40 0-48 33-48 73s9 75 48 75c24 0 41-14 43-38l32 2c-6 37-31 61-74 61-59 0-76-41-82-99-10-93 101-131 147-64 4 7 5 14 7 22l-32 3c-4-21-16-35-41-35" id="aj"/><path d="M59-47c-2 24 18 29 38 22v24C64 9 27 4 27-40v-127H5v-23h24l9-43h21v43h35v23H59v120" id="ak"/><path d="M24-231v-30h32v30H24zM24 0v-190h32V0H24" id="al"/><path d="M135-143c-3-34-86-38-87 0 15 53 115 12 119 90S17 21 10-45l28-5c4 36 97 45 98 0-10-56-113-15-118-90-4-57 82-63 122-42 12 7 21 19 24 35" id="am"/><g id="d"><use transform="matrix(0.05,0,0,0.05,0,0)" xlink:href="#ag"/><use transform="matrix(0.05,0,0,0.05,5,0)" xlink:href="#ah"/><use transform="matrix(0.05,0,0,0.05,15,0)" xlink:href="#ai"/><use transform="matrix(0.05,0,0,0.05,25,0)" xlink:href="#aj"/><use transform="matrix(0.05,0,0,0.05,34,0)" xlink:href="#ak"/><use transform="matrix(0.05,0,0,0.05,39,0)" xlink:href="#al"/><use transform="matrix(0.05,0,0,0.05,42.95,0)" xlink:href="#ah"/><use transform="matrix(0.05,0,0,0.05,52.95,0)" xlink:href="#ai"/><use transform="matrix(0.05,0,0,0.05,62.95,0)" xlink:href="#am"/></g><path d="M85-194c31 0 48 13 60 33l-1-100h32l1 261h-30c-2-10 0-23-3-31C134-8 116 4 85 4 32 4 16-35 15-94c0-66 23-100 70-100zm9 24c-40 0-46 34-46 75 0 40 6 74 45 74 42 0 51-32 51-76 0-42-9-74-50-73" id="an"/><path d="M114-163C36-179 61-72 57 0H25l-1-190h30c1 12-1 29 2 39 6-27 23-49 58-41v29" id="ao"/><path d="M100-194c63 0 86 42 84 106H49c0 40 14 67 53 68 26 1 43-12 49-29l28 8c-11 28-37 45-77 45C44 4 14-33 15-96c1-61 26-98 85-98zm52 81c6-60-76-77-97-28-3 7-6 17-6 28h103" id="ap"/><path d="M179-190L93 31C79 59 56 82 12 73V49c39 6 53-20 64-50L1-190h34L92-34l54-156h33" id="aq"/><path d="M16-82v-28h88v28H16" id="ar"/><path d="M24 0v-261h32V0H24" id="as"/><path d="M108 0H70L1-190h34L89-25l56-165h34" id="at"/><path d="M141-36C126-15 110 5 73 4 37 3 15-17 15-53c-1-64 63-63 125-63 3-35-9-54-41-54-24 1-41 7-42 31l-33-3c5-37 33-52 76-52 45 0 72 20 72 64v82c-1 20 7 32 28 27v20c-31 9-61-2-59-35zM48-53c0 20 12 33 32 33 41-3 63-29 60-74-43 2-92-5-92 41" id="au"/><path d="M115-194c53 0 69 39 70 98 0 66-23 100-70 100C84 3 66-7 56-30L54 0H23l1-261h32v101c10-23 28-34 59-34zm-8 174c40 0 45-34 45-75 0-40-5-75-45-74-42 0-51 32-51 76 0 43 10 73 51 73" id="av"/><g id="e"><use transform="matrix(0.05,0,0,0.05,0,0)" xlink:href="#an"/><use transform="matrix(0.05,0,0,0.05,10,0)" xlink:href="#al"/><use transform="matrix(0.05,0,0,0.05,13.949999999999998,0)" xlink:href="#ao"/><use transform="matrix(0.05,0,0,0.05,19.9,0)" xlink:href="#ap"/><use transform="matrix(0.05,0,0,0.05,29.899999999999995,0)" xlink:href="#aj"/><use transform="matrix(0.05,0,0,0.05,38.9,0)" xlink:href="#ak"/><use transform="matrix(0.05,0,0,0.05,43.9,0)" xlink:href="#ah"/><use transform="matrix(0.05,0,0,0.05,53.900000000000006,0)" xlink:href="#ao"/><use transform="matrix(0.05,0,0,0.05,59.85,0)" xlink:href="#aq"/><use transform="matrix(0.05,0,0,0.05,68.85,0)" xlink:href="#ar"/><use transform="matrix(0.05,0,0,0.05,74.8,0)" xlink:href="#as"/><use transform="matrix(0.05,0,0,0.05,78.75,0)" xlink:href="#al"/><use transform="matrix(0.05,0,0,0.05,82.7,0)" xlink:href="#am"/><use transform="matrix(0.05,0,0,0.05,91.7,0)" xlink:href="#ak"/><use transform="matrix(0.05,0,0,0.05,96.7,0)" xlink:href="#ap"/><use transform="matrix(0.05,0,0,0.05,106.7,0)" xlink:href="#am"/><use transform="matrix(0.05,0,0,0.05,115.7,0)" xlink:href="#ar"/><use transform="matrix(0.05,0,0,0.05,121.65,0)" xlink:href="#at"/><use transform="matrix(0.05,0,0,0.05,130.65,0)" xlink:href="#au"/><use transform="matrix(0.05,0,0,0.05,140.65,0)" xlink:href="#ao"/><use transform="matrix(0.05,0,0,0.05,146.6,0)" xlink:href="#al"/><use transform="matrix(0.05,0,0,0.05,150.54999999999998,0)" xlink:href="#au"/><use transform="matrix(0.05,0,0,0.05,160.54999999999998,0)" xlink:href="#av"/><use transform="matrix(0.05,0,0,0.05,170.54999999999998,0)" xlink:href="#as"/><use transform="matrix(0.05,0,0,0.05,174.49999999999997,0)" xlink:href="#ap"/><use transform="matrix(0.05,0,0,0.05,184.49999999999997,0)" xlink:href="#am"/></g><g id="f"><use transform="matrix(0.05,0,0,0.05,0,0)" xlink:href="#as"/><use transform="matrix(0.05,0,0,0.05,3.95,0)" xlink:href="#al"/><use transform="matrix(0.05,0,0,0.05,7.9,0)" xlink:href="#av"/><use transform="matrix(0.05,0,0,0.05,17.9,0)" xlink:href="#ao"/><use transform="matrix(0.05,0,0,0.05,23.849999999999998,0)" xlink:href="#au"/><use transform="matrix(0.05,0,0,0.05,33.849999999999994,0)" xlink:href="#al"/><use transform="matrix(0.05,0,0,0.05,37.8,0)" xlink:href="#ao"/><use transform="matrix(0.05,0,0,0.05,43.75,0)" xlink:href="#al"/><use transform="matrix(0.05,0,0,0.05,47.7,0)" xlink:href="#ap"/><use transform="matrix(0.05,0,0,0.05,57.7,0)" xlink:href="#am"/></g><path d="M169-182c-1-43-94-46-97-3 18 66 151 10 154 114 3 95-165 93-204 36-6-8-10-19-12-30l50-8c3 46 112 56 116 5-17-69-150-10-154-114-4-87 153-88 188-35 5 8 8 18 10 28" id="aw"/><path d="M24-248c93 1 206-16 204 79-1 75-69 88-152 82V0H24v-248zm52 121c47 0 100 7 100-41 0-47-54-39-100-39v80" id="ax"/><path d="M146-102V0H94v-102L6-248h54l60 105 60-105h54" id="ay"/><g id="g"><use transform="matrix(0.05,0,0,0.05,0,0)" xlink:href="#X"/><use transform="matrix(0.05,0,0,0.05,10.950000000000001,0)" xlink:href="#aa"/><use transform="matrix(0.05,0,0,0.05,23.900000000000002,0)" xlink:href="#aw"/><use transform="matrix(0.05,0,0,0.05,35.900000000000006,0)" xlink:href="#ax"/><use transform="matrix(0.05,0,0,0.05,47.900000000000006,0)" xlink:href="#ay"/></g><path d="M177-190C167-65 218 103 67 71c-23-6-38-20-44-43l32-5c15 47 100 32 89-28v-30C133-14 115 1 83 1 29 1 15-40 15-95c0-56 16-97 71-98 29-1 48 16 59 35 1-10 0-23 2-32h30zM94-22c36 0 50-32 50-73 0-42-14-75-50-75-39 0-46 34-46 75s6 73 46 73" id="az"/><g id="h"><use transform="matrix(0.05,0,0,0.05,0,0)" xlink:href="#ag"/><use transform="matrix(0.05,0,0,0.05,5,0)" xlink:href="#al"/><use transform="matrix(0.05,0,0,0.05,8.95,0)" xlink:href="#as"/><use transform="matrix(0.05,0,0,0.05,12.899999999999999,0)" xlink:href="#ak"/><use transform="matrix(0.05,0,0,0.05,17.9,0)" xlink:href="#ao"/><use transform="matrix(0.05,0,0,0.05,23.849999999999998,0)" xlink:href="#au"/><use transform="matrix(0.05,0,0,0.05,33.849999999999994,0)" xlink:href="#az"/><use transform="matrix(0.05,0,0,0.05,43.849999999999994,0)" xlink:href="#ap"/></g><path d="M47-170H22l-4-78h33" id="aA"/><path d="M84 4C-5 8 30-112 23-190h32v120c0 31 7 50 39 49 72-2 45-101 50-169h31l1 190h-30c-1-10 1-25-2-33-11 22-28 36-60 37" id="aB"/><g id="i"><use transform="matrix(0.05,0,0,0.05,0,0)" xlink:href="#an"/><use transform="matrix(0.05,0,0,0.05,10,0)" xlink:href="#aA"/><use transform="matrix(0.05,0,0,0.05,13.4,0)" xlink:href="#aB"/><use transform="matrix(0.05,0,0,0.05,23.4,0)" xlink:href="#ai"/><use transform="matrix(0.05,0,0,0.05,33.4,0)" xlink:href="#ap"/></g><g id="j"><use transform="matrix(0.05,0,0,0.05,0,0)" xlink:href="#an"/><use transform="matrix(0.05,0,0,0.05,10,0)" xlink:href="#au"/><use transform="matrix(0.05,0,0,0.05,20,0)" xlink:href="#as"/><use transform="matrix(0.05,0,0,0.05,23.95,0)" xlink:href="#as"/><use transform="matrix(0.05,0,0,0.05,27.899999999999995,0)" xlink:href="#ap"/></g><path d="M54-142c48-35 137-8 131 61C196 18 31 33 14-55l32-4c7 23 22 37 52 37 35-1 51-22 54-58 4-55-73-65-99-34H22l8-134h141v27H59" id="aC"/><path d="M101-251c68 0 85 55 85 127S166 4 100 4C33 4 14-52 14-124c0-73 17-127 87-127zm-1 229c47 0 54-49 54-102s-4-102-53-102c-51 0-55 48-55 102 0 53 5 102 54 102" id="aD"/><path d="M141 0L90-78 38 0H4l68-98-65-92h35l48 74 47-74h35l-64 92 68 98h-35" id="aE"/><g id="k"><use transform="matrix(0.05,0,0,0.05,0,0)" xlink:href="#aC"/><use transform="matrix(0.05,0,0,0.05,10,0)" xlink:href="#aD"/><use transform="matrix(0.05,0,0,0.05,20,0)" xlink:href="#aD"/><use transform="matrix(0.05,0,0,0.05,30,0)" xlink:href="#aE"/><use transform="matrix(0.05,0,0,0.05,39,0)" xlink:href="#aC"/><use transform="matrix(0.05,0,0,0.05,49,0)" xlink:href="#aD"/><use transform="matrix(0.05,0,0,0.05,59,0)" xlink:href="#aD"/></g><path d="M100-194c63 0 86 42 84 106H49c0 40 14 67 53 68 26 1 43-12 49-29l28 8c-11 28-37 45-77 45C44 4 14-33 15-96c1-61 26-98 85-98zm52 81c6-60-76-77-97-28-3 7-6 17-6 28h103zm-74-98c8-23 27-35 38-54h36v5l-58 49H78" id="aF"/><g id="l"><use transform="matrix(0.05,0,0,0.05,0,0)" xlink:href="#an"/><use transform="matrix(0.05,0,0,0.05,10,0)" xlink:href="#al"/><use transform="matrix(0.05,0,0,0.05,13.949999999999998,0)" xlink:href="#at"/><use transform="matrix(0.05,0,0,0.05,22.95,0)" xlink:href="#al"/><use transform="matrix(0.05,0,0,0.05,26.899999999999995,0)" xlink:href="#am"/><use transform="matrix(0.05,0,0,0.05,35.9,0)" xlink:href="#aF"/><use transform="matrix(0.05,0,0,0.05,45.9,0)" xlink:href="#ap"/></g><g id="m"><use transform="matrix(0.05,0,0,0.05,0,0)" xlink:href="#ap"/><use transform="matrix(0.05,0,0,0.05,10,0)" xlink:href="#ai"/></g><path d="M27 0v-27h64v-190l-56 39v-29l58-41h29v221h61V0H27" id="aG"/><g id="n"><use transform="matrix(0.05,0,0,0.05,0,0)" xlink:href="#aG"/><use transform="matrix(0.05,0,0,0.05,10,0)" xlink:href="#aD"/><use transform="matrix(0.05,0,0,0.05,20,0)" xlink:href="#aD"/></g><path d="M87 75C49 33 22-17 22-94c0-76 28-126 65-167h31c-38 41-64 92-64 168S80 34 118 75H87" id="aH"/><path d="M155-56V0h-30v-56H8v-25l114-167h33v167h35v25h-35zm-30-156c-27 46-58 90-88 131h88v-131" id="aI"/><path d="M210-169c-67 3-38 105-44 169h-31v-121c0-29-5-50-35-48C34-165 62-65 56 0H25l-1-190h30c1 10-1 24 2 32 10-44 99-50 107 0 11-21 27-35 58-36 85-2 47 119 55 194h-31v-121c0-29-5-49-35-48" id="aJ"/><path d="M33-261c38 41 65 92 65 168S71 34 33 75H2C39 34 66-17 66-93S39-220 2-261h31" id="aK"/><g id="o"><use transform="matrix(0.05,0,0,0.05,0,0)" xlink:href="#aH"/><use transform="matrix(0.05,0,0,0.05,5.95,0)" xlink:href="#aI"/><use transform="matrix(0.05,0,0,0.05,15.949999999999998,0)" xlink:href="#aJ"/><use transform="matrix(0.05,0,0,0.05,30.899999999999995,0)" xlink:href="#ai"/><use transform="matrix(0.05,0,0,0.05,40.9,0)" xlink:href="#aK"/></g><path d="M67-125c0 54 23 88 75 88 28 0 53-7 68-21v-34h-60v-39h108v91C232-14 192 4 140 4 58 4 20-42 15-125 8-236 126-280 215-234c19 10 29 26 37 47l-47 15c-11-23-29-39-63-39-53 1-75 33-75 86" id="aL"/><path d="M185-48c-13 30-37 53-82 52C43 2 14-33 14-96s30-98 90-98c62 0 83 45 84 108H66c0 31 8 55 39 56 18 0 30-7 34-22zm-45-69c5-46-57-63-70-21-2 6-4 13-4 21h74" id="aM"/><path d="M110-194c64 0 96 36 96 99 0 64-35 99-97 99-61 0-95-36-95-99 0-62 34-99 96-99zm-1 164c35 0 45-28 45-65 0-40-10-65-43-65-34 0-45 26-45 65 0 36 10 65 43 65" id="aN"/><path d="M175 0L67-191c6 58 2 128 3 191H24v-248h59L193-55c-6-58-2-129-3-193h46V0h-61" id="aO"/><g id="p"><use transform="matrix(0.05,0,0,0.05,0,0)" xlink:href="#aL"/><use transform="matrix(0.05,0,0,0.05,14,0)" xlink:href="#aM"/><use transform="matrix(0.05,0,0,0.05,24,0)" xlink:href="#aN"/><use transform="matrix(0.05,0,0,0.05,34.95,0)" xlink:href="#ax"/><use transform="matrix(0.05,0,0,0.05,45.6,0)" xlink:href="#aa"/><use transform="matrix(0.05,0,0,0.05,58.550000000000004,0)" xlink:href="#aO"/><use transform="matrix(0.05,0,0,0.05,71.5,0)" xlink:href="#Z"/><use transform="matrix(0.05,0,0,0.05,84.45,0)" xlink:href="#aa"/><use transform="matrix(0.05,0,0,0.05,97.4,0)" xlink:href="#aw"/></g><path d="M106-169C34-169 62-67 57 0H25v-261h32l-1 103c12-21 28-36 61-36 89 0 53 116 60 194h-32v-121c2-32-8-49-39-48" id="aP"/><g id="q"><use transform="matrix(0.05,0,0,0.05,0,0)" xlink:href="#ag"/><use transform="matrix(0.05,0,0,0.05,5,0)" xlink:href="#al"/><use transform="matrix(0.05,0,0,0.05,8.95,0)" xlink:href="#aj"/><use transform="matrix(0.05,0,0,0.05,17.95,0)" xlink:href="#aP"/><use transform="matrix(0.05,0,0,0.05,27.950000000000003,0)" xlink:href="#al"/><use transform="matrix(0.05,0,0,0.05,31.899999999999995,0)" xlink:href="#ap"/><use transform="matrix(0.05,0,0,0.05,41.9,0)" xlink:href="#ao"/><use transform="matrix(0.05,0,0,0.05,47.85,0)" xlink:href="#am"/></g><path d="M212-179c-10-28-35-45-73-45-59 0-87 40-87 99 0 60 29 101 89 101 43 0 62-24 78-52l27 14C228-24 195 4 139 4 59 4 22-46 18-125c-6-104 99-153 187-111 19 9 31 26 39 46" id="aQ"/><path d="M185-189c-5-48-123-54-124 2 14 75 158 14 163 119 3 78-121 87-175 55-17-10-28-26-33-46l33-7c5 56 141 63 141-1 0-78-155-14-162-118-5-82 145-84 179-34 5 7 8 16 11 25" id="aR"/><path d="M137 0h-34L2-248h35l83 218 83-218h36" id="aS"/><g id="r"><use transform="matrix(0.05,0,0,0.05,0,0)" xlink:href="#aQ"/><use transform="matrix(0.05,0,0,0.05,12.950000000000001,0)" xlink:href="#aR"/><use transform="matrix(0.05,0,0,0.05,24.950000000000003,0)" xlink:href="#aS"/></g><g id="s"><use transform="matrix(0.05,0,0,0.05,0,0)" xlink:href="#ax"/><use transform="matrix(0.05,0,0,0.05,12,0)" xlink:href="#Z"/><use transform="matrix(0.05,0,0,0.05,24.950000000000003,0)" xlink:href="#aa"/><use transform="matrix(0.05,0,0,0.05,37.900000000000006,0)" xlink:href="#X"/></g><path d="M76-208v77h127v40H76V0H24v-248h183v40H76" id="aT"/><path d="M230 0l2-204L168 0h-37L68-204 70 0H24v-248h70l56 185 57-185h69V0h-46" id="aU"/><path d="M24 0v-248h195v40H76v63h132v40H76v65h150V0H24" id="aV"/><g id="t"><use transform="matrix(0.05,0,0,0.05,0,0)" xlink:href="#aT"/><use transform="matrix(0.05,0,0,0.05,10.950000000000001,0)" xlink:href="#aU"/><use transform="matrix(0.05,0,0,0.05,25.900000000000002,0)" xlink:href="#aV"/></g><path d="M63-220v92h138v28H63V0H30v-248h175v28H63" id="aW"/><g id="u"><use transform="matrix(0.05,0,0,0.05,0,0)" xlink:href="#aW"/><use transform="matrix(0.05,0,0,0.05,10.950000000000001,0)" xlink:href="#al"/><use transform="matrix(0.05,0,0,0.05,14.9,0)" xlink:href="#aj"/><use transform="matrix(0.05,0,0,0.05,23.900000000000002,0)" xlink:href="#aP"/><use transform="matrix(0.05,0,0,0.05,33.900000000000006,0)" xlink:href="#al"/><use transform="matrix(0.05,0,0,0.05,37.85000000000001,0)" xlink:href="#ap"/><use transform="matrix(0.05,0,0,0.05,47.85000000000001,0)" xlink:href="#ao"/><use transform="matrix(0.05,0,0,0.05,53.80000000000001,0)" xlink:href="#am"/></g><path d="M205 0l-28-72H64L36 0H1l101-248h38L239 0h-34zm-38-99l-47-123c-12 45-31 82-46 123h93" id="aX"/><g id="v"><use transform="matrix(0.05,0,0,0.05,0,0)" xlink:href="#aX"/><use transform="matrix(0.05,0,0,0.05,12,0)" xlink:href="#aR"/><use transform="matrix(0.05,0,0,0.05,24,0)" xlink:href="#aQ"/></g><g id="w"><use transform="matrix(0.05,0,0,0.05,0,0)" xlink:href="#as"/><use transform="matrix(0.05,0,0,0.05,3.95,0)" xlink:href="#al"/><use transform="matrix(0.05,0,0,0.05,7.9,0)" xlink:href="#am"/><use transform="matrix(0.05,0,0,0.05,16.9,0)" xlink:href="#ak"/><use transform="matrix(0.05,0,0,0.05,21.9,0)" xlink:href="#ap"/></g><path d="M33 0v-38h34V0H33" id="aY"/><path d="M195 0l-74-108L45 0H8l94-129-87-119h37l69 98 67-98h37l-84 118L233 0h-38" id="aZ"/><path d="M30 0v-248h33v221h125V0H30" id="ba"/><g id="x"><use transform="matrix(0.05,0,0,0.05,0,0)" xlink:href="#aY"/><use transform="matrix(0.05,0,0,0.05,5,0)" xlink:href="#aZ"/><use transform="matrix(0.05,0,0,0.05,17,0)" xlink:href="#ba"/><use transform="matrix(0.05,0,0,0.05,27,0)" xlink:href="#aR"/><use transform="matrix(0.05,0,0,0.05,39,0)" xlink:href="#aZ"/></g><path d="M127-220V0H93v-220H8v-28h204v28h-85" id="bb"/><path d="M33 0v-248h34V0H33" id="bc"/><g id="y"><use transform="matrix(0.05,0,0,0.05,0,0)" xlink:href="#bb"/><use transform="matrix(0.05,0,0,0.05,10.950000000000001,0)" xlink:href="#bc"/><use transform="matrix(0.05,0,0,0.05,15.950000000000001,0)" xlink:href="#aW"/><use transform="matrix(0.05,0,0,0.05,26.900000000000002,0)" xlink:href="#aW"/></g><path d="M30-248c118-7 216 8 213 122C240-48 200 0 122 0H30v-248zM63-27c89 8 146-16 146-99s-60-101-146-95v194" id="bd"/><g id="z"><use transform="matrix(0.05,0,0,0.05,0,0)" xlink:href="#bd"/><use transform="matrix(0.05,0,0,0.05,12.950000000000001,0)" xlink:href="#aX"/><use transform="matrix(0.05,0,0,0.05,23.6,0)" xlink:href="#bb"/><use transform="matrix(0.05,0,0,0.05,33.2,0)" xlink:href="#aX"/></g><path d="M232-93c-1 65-40 97-104 97C67 4 28-28 28-90v-158h33c8 89-33 224 67 224 102 0 64-133 71-224h33v155" id="be"/><path d="M143 4C61 4 22-44 18-125c-5-107 100-154 193-111 17 8 29 25 37 43l-32 9c-13-25-37-40-76-40-61 0-88 39-88 99 0 61 29 100 91 101 35 0 62-11 79-27v-45h-74v-28h105v86C228-13 192 4 143 4" id="bf"/><path d="M240 0l2-218c-23 76-54 145-80 218h-23L58-218 59 0H30v-248h44l77 211c21-75 51-140 76-211h43V0h-30" id="bg"/><path d="M30 0v-248h187v28H63v79h144v27H63v87h162V0H30" id="bh"/><path d="M190 0L58-211 59 0H30v-248h39L202-35l-2-213h31V0h-41" id="bi"/><path d="M140-251c81 0 123 46 123 126C263-46 219 4 140 4 59 4 17-45 17-125s42-126 123-126zm0 227c63 0 89-41 89-101s-29-99-89-99c-61 0-89 39-89 99S79-25 140-24" id="bj"/><g id="A"><use transform="matrix(0.05,0,0,0.05,0,0)" xlink:href="#aX"/><use transform="matrix(0.05,0,0,0.05,12,0)" xlink:href="#be"/><use transform="matrix(0.05,0,0,0.05,24.950000000000003,0)" xlink:href="#bf"/><use transform="matrix(0.05,0,0,0.05,38.95,0)" xlink:href="#bg"/><use transform="matrix(0.05,0,0,0.05,53.900000000000006,0)" xlink:href="#bh"/><use transform="matrix(0.05,0,0,0.05,65.9,0)" xlink:href="#bi"/><use transform="matrix(0.05,0,0,0.05,78.85000000000001,0)" xlink:href="#bb"/><use transform="matrix(0.05,0,0,0.05,88.45000000000002,0)" xlink:href="#aX"/><use transform="matrix(0.05,0,0,0.05,99.10000000000002,0)" xlink:href="#bb"/><use transform="matrix(0.05,0,0,0.05,110.05000000000003,0)" xlink:href="#bc"/><use transform="matrix(0.05,0,0,0.05,115.05000000000003,0)" xlink:href="#bj"/><use transform="matrix(0.05,0,0,0.05,129.05,0)" xlink:href="#bi"/></g><g id="B"><use transform="matrix(0.05,0,0,0.05,0,0)" xlink:href="#ap"/><use transform="matrix(0.05,0,0,0.05,10,0)" xlink:href="#aE"/><use transform="matrix(0.05,0,0,0.05,19,0)" xlink:href="#ak"/><use transform="matrix(0.05,0,0,0.05,24,0)" xlink:href="#ao"/><use transform="matrix(0.05,0,0,0.05,29.950000000000003,0)" xlink:href="#au"/><use transform="matrix(0.05,0,0,0.05,39.95,0)" xlink:href="#aj"/><use transform="matrix(0.05,0,0,0.05,48.95,0)" xlink:href="#ak"/><use transform="matrix(0.05,0,0,0.05,53.95,0)" xlink:href="#al"/><use transform="matrix(0.05,0,0,0.05,57.900000000000006,0)" xlink:href="#ah"/><use transform="matrix(0.05,0,0,0.05,67.9,0)" xlink:href="#ai"/></g><g id="C"><use transform="matrix(0.05,0,0,0.05,0,0)" xlink:href="#ao"/><use transform="matrix(0.05,0,0,0.05,5.95,0)" xlink:href="#ap"/><use transform="matrix(0.05,0,0,0.05,15.949999999999998,0)" xlink:href="#ai"/><use transform="matrix(0.05,0,0,0.05,25.950000000000003,0)" xlink:href="#ah"/><use transform="matrix(0.05,0,0,0.05,35.95,0)" xlink:href="#aJ"/><use transform="matrix(0.05,0,0,0.05,50.900000000000006,0)" xlink:href="#au"/><use transform="matrix(0.05,0,0,0.05,60.900000000000006,0)" xlink:href="#az"/><use transform="matrix(0.05,0,0,0.05,70.9,0)" xlink:href="#ap"/></g><path d="M195 0l-88-114-31 24V0H24v-248h52v113l112-113h60L142-143 257 0h-62" id="bk"/><g id="D"><use transform="matrix(0.06234567901234567,0,0,0.06234567901234567,0,0)" xlink:href="#bk"/><use transform="matrix(0.06234567901234567,0,0,0.06234567901234567,16.147530864197527,0)" xlink:href="#aV"/><use transform="matrix(0.06234567901234567,0,0,0.06234567901234567,31.11049382716049,0)" xlink:href="#ab"/><use transform="matrix(0.06234567901234567,0,0,0.06234567901234567,47.25802469135802,0)" xlink:href="#aa"/><use transform="matrix(0.06234567901234567,0,0,0.06234567901234567,63.405555555555544,0)" xlink:href="#aw"/></g><path d="M185-48c-13 30-37 53-82 52C43 2 14-33 14-96s30-98 90-98c62 0 83 45 84 108H66c0 31 8 55 39 56 18 0 30-7 34-22zm-45-69c5-46-57-63-70-21-2 6-4 13-4 21h74zm-67-91v-5l45-51h45v8l-60 48H73" id="bl"/><path d="M137-138c1-29-70-34-71-4 15 46 118 7 119 86 1 83-164 76-172 9l43-7c4 19 20 25 44 25 33 8 57-30 24-41C81-84 22-81 20-136c-2-80 154-74 161-7" id="bm"/><path d="M85 4C-2 5 27-109 22-190h50c7 57-23 150 33 157 60-5 35-97 40-157h50l1 190h-47c-2-12 1-28-3-38-12 25-28 42-61 42" id="bn"/><path d="M144 0l-44-69L55 0H2l70-98-66-92h53l41 62 40-62h54l-67 91 71 99h-54" id="bo"/><g id="E"><use transform="matrix(0.06234567901234567,0,0,0.06234567901234567,0,0)" xlink:href="#ab"/><use transform="matrix(0.06234567901234567,0,0,0.06234567901234567,16.147530864197527,0)" xlink:href="#bl"/><use transform="matrix(0.06234567901234567,0,0,0.06234567901234567,28.61666666666666,0)" xlink:href="#bm"/><use transform="matrix(0.06234567901234567,0,0,0.06234567901234567,41.08580246913579,0)" xlink:href="#aM"/><use transform="matrix(0.06234567901234567,0,0,0.06234567901234567,53.554938271604925,0)" xlink:href="#ae"/><use transform="matrix(0.06234567901234567,0,0,0.06234567901234567,66.02407407407406,0)" xlink:href="#bn"/><use transform="matrix(0.06234567901234567,0,0,0.06234567901234567,79.67777777777776,0)" xlink:href="#bo"/></g><path d="M135-150c-39-12-60 13-60 57V0H25l-1-190h47c2 13-1 29 3 40 6-28 27-53 61-41v41" id="bp"/><path d="M135-194c87-1 58 113 63 194h-50c-7-57 23-157-34-157-59 0-34 97-39 157H25l-1-190h47c2 12-1 28 3 38 12-26 28-41 61-42" id="bq"/><g id="F"><use transform="matrix(0.06234567901234567,0,0,0.06234567901234567,0,0)" xlink:href="#aO"/><use transform="matrix(0.06234567901234567,0,0,0.06234567901234567,16.147530864197527,0)" xlink:href="#aM"/><use transform="matrix(0.06234567901234567,0,0,0.06234567901234567,28.61666666666666,0)" xlink:href="#bn"/><use transform="matrix(0.06234567901234567,0,0,0.06234567901234567,42.27037037037036,0)" xlink:href="#bp"/><use transform="matrix(0.06234567901234567,0,0,0.06234567901234567,50.99876543209875,0)" xlink:href="#aN"/><use transform="matrix(0.06234567901234567,0,0,0.06234567901234567,64.65246913580245,0)" xlink:href="#bq"/><use transform="matrix(0.06234567901234567,0,0,0.06234567901234567,78.30617283950615,0)" xlink:href="#bq"/><use transform="matrix(0.06234567901234567,0,0,0.06234567901234567,91.95987654320984,0)" xlink:href="#aM"/><use transform="matrix(0.06234567901234567,0,0,0.06234567901234567,104.42901234567898,0)" xlink:href="#bm"/></g><path d="M23 0v-37h61v-169l-59 37v-38l62-41h46v211h57V0H23" id="br"/><g id="G"><use transform="matrix(0.06234567901234567,0,0,0.06234567901234567,0,0)" xlink:href="#br"/><use transform="matrix(0.06234567901234567,0,0,0.06234567901234567,12.469135802469133,0)" xlink:href="#Z"/></g><path d="M182-182c0 78-84 86-111 141h115V0H12c-6-101 99-100 120-180 1-22-12-31-33-32-23 0-32 14-35 34l-49-3c5-45 32-70 84-70 51 0 83 22 83 69" id="bs"/><g id="H"><use transform="matrix(0.06234567901234567,0,0,0.06234567901234567,0,0)" xlink:href="#bs"/><use transform="matrix(0.06234567901234567,0,0,0.06234567901234567,12.469135802469133,0)" xlink:href="#Z"/></g><path d="M67-125c0 53 21 87 73 88 37 1 54-22 65-47l45 17C233-25 199 4 140 4 58 4 20-42 15-125 8-235 124-281 211-232c18 10 29 29 36 50l-46 12c-8-25-30-41-62-41-52 0-71 34-72 86" id="bt"/><g id="I"><use transform="matrix(0.06234567901234567,0,0,0.06234567901234567,0,0)" xlink:href="#bt"/><use transform="matrix(0.06234567901234567,0,0,0.06234567901234567,16.147530864197527,0)" xlink:href="#aO"/><use transform="matrix(0.06234567901234567,0,0,0.06234567901234567,32.295061728395055,0)" xlink:href="#aO"/></g><path d="M182 0l-62-99L58 0H3l86-130-79-118h55l55 88 55-88h55l-75 118L237 0h-55" id="bu"/><path d="M136-208V0H84v-208H4v-40h212v40h-80" id="bv"/><g id="J"><use transform="matrix(0.06234567901234567,0,0,0.06234567901234567,0,0)" xlink:href="#aU"/><use transform="matrix(0.06234567901234567,0,0,0.06234567901234567,18.641358024691353,0)" xlink:href="#bu"/><use transform="matrix(0.06234567901234567,0,0,0.06234567901234567,33.60432098765431,0)" xlink:href="#aO"/><use transform="matrix(0.06234567901234567,0,0,0.06234567901234567,49.75185185185184,0)" xlink:href="#aV"/><use transform="matrix(0.06234567901234567,0,0,0.06234567901234567,64.7148148148148,0)" xlink:href="#bv"/></g><path d="M275 0h-61l-44-196L126 0H64L0-248h53L97-49l45-199h58l43 199 44-199h52" id="bw"/><path d="M14-72v-43h91v43H14" id="bx"/><g id="K"><use transform="matrix(0.06234567901234567,0,0,0.06234567901234567,0,0)" xlink:href="#aa"/><use transform="matrix(0.06234567901234567,0,0,0.06234567901234567,14.900617283950615,0)" xlink:href="#bw"/><use transform="matrix(0.06234567901234567,0,0,0.06234567901234567,36.035802469135795,0)" xlink:href="#aw"/><use transform="matrix(0.06234567901234567,0,0,0.06234567901234567,50.99876543209876,0)" xlink:href="#bx"/></g><g id="L"><use transform="matrix(0.05,0,0,0.05,0,0)" xlink:href="#bd"/><use transform="matrix(0.05,0,0,0.05,12.950000000000001,0)" xlink:href="#aX"/><use transform="matrix(0.05,0,0,0.05,23.6,0)" xlink:href="#bb"/><use transform="matrix(0.05,0,0,0.05,33.2,0)" xlink:href="#aX"/></g><g id="M"><use transform="matrix(0.05,0,0,0.05,0,0)" xlink:href="#aX"/><use transform="matrix(0.05,0,0,0.05,12,0)" xlink:href="#be"/><use transform="matrix(0.05,0,0,0.05,24.950000000000003,0)" xlink:href="#bf"/><use transform="matrix(0.05,0,0,0.05,38.95,0)" xlink:href="#bg"/><use transform="matrix(0.05,0,0,0.05,53.900000000000006,0)" xlink:href="#bh"/><use transform="matrix(0.05,0,0,0.05,65.9,0)" xlink:href="#bi"/><use transform="matrix(0.05,0,0,0.05,78.85000000000001,0)" xlink:href="#bb"/><use transform="matrix(0.05,0,0,0.05,88.45000000000002,0)" xlink:href="#aX"/><use transform="matrix(0.05,0,0,0.05,99.10000000000002,0)" xlink:href="#bb"/><use transform="matrix(0.05,0,0,0.05,110.05000000000003,0)" xlink:href="#bc"/><use transform="matrix(0.05,0,0,0.05,115.05000000000003,0)" xlink:href="#bj"/><use transform="matrix(0.05,0,0,0.05,129.05,0)" xlink:href="#bi"/></g><path d="M115-194c55 1 70 41 70 98S169 2 115 4C84 4 66-9 55-30l1 105H24l-1-265h31l2 30c10-21 28-34 59-34zm-8 174c40 0 45-34 45-75s-6-73-45-74c-42 0-51 32-51 76 0 43 10 73 51 73" id="by"/><g id="N"><use transform="matrix(0.05,0,0,0.05,0,0)" xlink:href="#aR"/><use transform="matrix(0.05,0,0,0.05,12,0)" xlink:href="#aF"/><use transform="matrix(0.05,0,0,0.05,22,0)" xlink:href="#by"/><use transform="matrix(0.05,0,0,0.05,32,0)" xlink:href="#au"/><use transform="matrix(0.05,0,0,0.05,42,0)" xlink:href="#ao"/><use transform="matrix(0.05,0,0,0.05,47.95,0)" xlink:href="#au"/><use transform="matrix(0.05,0,0,0.05,57.95,0)" xlink:href="#ak"/><use transform="matrix(0.05,0,0,0.05,62.95,0)" xlink:href="#al"/><use transform="matrix(0.05,0,0,0.05,66.9,0)" xlink:href="#ah"/><use transform="matrix(0.05,0,0,0.05,76.9,0)" xlink:href="#ai"/></g><g id="O"><use transform="matrix(0.05,0,0,0.05,0,0)" xlink:href="#bb"/><use transform="matrix(0.05,0,0,0.05,10.3,0)" xlink:href="#ao"/><use transform="matrix(0.05,0,0,0.05,16.25,0)" xlink:href="#au"/><use transform="matrix(0.05,0,0,0.05,26.25,0)" xlink:href="#al"/><use transform="matrix(0.05,0,0,0.05,30.200000000000003,0)" xlink:href="#ai"/><use transform="matrix(0.05,0,0,0.05,40.2,0)" xlink:href="#ar"/><use transform="matrix(0.05,0,0,0.05,46.150000000000006,0)" xlink:href="#aS"/><use transform="matrix(0.05,0,0,0.05,56.800000000000004,0)" xlink:href="#au"/><use transform="matrix(0.05,0,0,0.05,66.80000000000001,0)" xlink:href="#as"/><use transform="matrix(0.05,0,0,0.05,70.75000000000001,0)" xlink:href="#al"/><use transform="matrix(0.05,0,0,0.05,74.70000000000002,0)" xlink:href="#an"/><use transform="matrix(0.05,0,0,0.05,84.70000000000002,0)" xlink:href="#au"/><use transform="matrix(0.05,0,0,0.05,94.70000000000002,0)" xlink:href="#ak"/><use transform="matrix(0.05,0,0,0.05,99.70000000000002,0)" xlink:href="#al"/><use transform="matrix(0.05,0,0,0.05,103.65000000000003,0)" xlink:href="#ah"/><use transform="matrix(0.05,0,0,0.05,113.65000000000003,0)" xlink:href="#ai"/><use transform="matrix(0.05,0,0,0.05,123.65000000000003,0)" xlink:href="#ar"/><use transform="matrix(0.05,0,0,0.05,129.60000000000002,0)" xlink:href="#bb"/><use transform="matrix(0.05,0,0,0.05,138.55,0)" xlink:href="#ap"/><use transform="matrix(0.05,0,0,0.05,148.55,0)" xlink:href="#am"/><use transform="matrix(0.05,0,0,0.05,157.55,0)" xlink:href="#ak"/></g><g id="P"><use transform="matrix(0.05,0,0,0.05,0,0)" xlink:href="#aS"/><use transform="matrix(0.05,0,0,0.05,12,0)" xlink:href="#bc"/><use transform="matrix(0.05,0,0,0.05,17,0)" xlink:href="#aR"/><use transform="matrix(0.05,0,0,0.05,29,0)" xlink:href="#be"/><use transform="matrix(0.05,0,0,0.05,41.95,0)" xlink:href="#aX"/><use transform="matrix(0.05,0,0,0.05,53.95,0)" xlink:href="#ba"/><use transform="matrix(0.05,0,0,0.05,63.95,0)" xlink:href="#bc"/><use transform="matrix(0.05,0,0,0.05,68.95,0)" xlink:href="#aR"/><use transform="matrix(0.05,0,0,0.05,80.95,0)" xlink:href="#aX"/><use transform="matrix(0.05,0,0,0.05,91.60000000000001,0)" xlink:href="#bb"/><use transform="matrix(0.05,0,0,0.05,102.55000000000001,0)" xlink:href="#bc"/><use transform="matrix(0.05,0,0,0.05,107.55000000000001,0)" xlink:href="#bj"/><use transform="matrix(0.05,0,0,0.05,121.55000000000001,0)" xlink:href="#bi"/></g><path d="M233-177c-1 41-23 64-60 70L243 0h-38l-65-103H63V0H30v-248c88 3 205-21 203 71zM63-129c60-2 137 13 137-47 0-61-80-42-137-45v92" id="bz"/><g id="Q"><use transform="matrix(0.05,0,0,0.05,0,0)" xlink:href="#bz"/><use transform="matrix(0.05,0,0,0.05,12.950000000000001,0)" xlink:href="#aF"/><use transform="matrix(0.05,0,0,0.05,22.950000000000003,0)" xlink:href="#am"/><use transform="matrix(0.05,0,0,0.05,31.950000000000003,0)" xlink:href="#aB"/><use transform="matrix(0.05,0,0,0.05,41.95,0)" xlink:href="#as"/><use transform="matrix(0.05,0,0,0.05,45.900000000000006,0)" xlink:href="#ak"/><use transform="matrix(0.05,0,0,0.05,50.900000000000006,0)" xlink:href="#au"/><use transform="matrix(0.05,0,0,0.05,60.900000000000006,0)" xlink:href="#ak"/><use transform="matrix(0.05,0,0,0.05,65.9,0)" xlink:href="#am"/></g><use transform="matrix(0.05,0,0,0.05,0,0)" xlink:href="#ar" id="R"/><path d="M143 0L79-87 56-68V0H24v-261h32v163l83-92h37l-77 82L181 0h-38" id="bA"/><g id="S"><use transform="matrix(0.05,0,0,0.05,0,0)" xlink:href="#aQ"/><use transform="matrix(0.05,0,0,0.05,12.950000000000001,0)" xlink:href="#aP"/><use transform="matrix(0.05,0,0,0.05,22.950000000000003,0)" xlink:href="#ap"/><use transform="matrix(0.05,0,0,0.05,32.95,0)" xlink:href="#aj"/><use transform="matrix(0.05,0,0,0.05,41.95,0)" xlink:href="#bA"/><use transform="matrix(0.05,0,0,0.05,50.95,0)" xlink:href="#am"/></g><use transform="matrix(0.05,0,0,0.05,0,0)" xlink:href="#ar" id="T"/><g id="U"><use transform="matrix(0.05,0,0,0.05,0,0)" xlink:href="#aX"/><use transform="matrix(0.05,0,0,0.05,12,0)" xlink:href="#aJ"/><use transform="matrix(0.05,0,0,0.05,26.950000000000003,0)" xlink:href="#aF"/><use transform="matrix(0.05,0,0,0.05,36.95,0)" xlink:href="#as"/><use transform="matrix(0.05,0,0,0.05,40.900000000000006,0)" xlink:href="#al"/><use transform="matrix(0.05,0,0,0.05,44.85000000000001,0)" xlink:href="#ah"/><use transform="matrix(0.05,0,0,0.05,54.85,0)" xlink:href="#ao"/><use transform="matrix(0.05,0,0,0.05,60.80000000000001,0)" xlink:href="#au"/><use transform="matrix(0.05,0,0,0.05,70.80000000000001,0)" xlink:href="#ak"/><use transform="matrix(0.05,0,0,0.05,75.80000000000001,0)" xlink:href="#al"/><use transform="matrix(0.05,0,0,0.05,79.75000000000001,0)" xlink:href="#ah"/><use transform="matrix(0.05,0,0,0.05,89.75000000000001,0)" xlink:href="#ai"/><use transform="matrix(0.05,0,0,0.05,99.75000000000001,0)" xlink:href="#am"/></g><path fill="#333" d="M30-248c87 1 191-15 191 75 0 78-77 80-158 76V0H30v-248zm33 125c57 0 124 11 124-50 0-59-68-47-124-48v98" id="bB"/><path fill="#333" d="M24-231v-30h32v30H24zM24 0v-190h32V0H24" id="bC"/><path fill="#333" d="M115-194c55 1 70 41 70 98S169 2 115 4C84 4 66-9 55-30l1 105H24l-1-265h31l2 30c10-21 28-34 59-34zm-8 174c40 0 45-34 45-75s-6-73-45-74c-42 0-51 32-51 76 0 43 10 73 51 73" id="bD"/><path fill="#333" d="M100-194c63 0 86 42 84 106H49c0 40 14 67 53 68 26 1 43-12 49-29l28 8c-11 28-37 45-77 45C44 4 14-33 15-96c1-61 26-98 85-98zm52 81c6-60-76-77-97-28-3 7-6 17-6 28h103" id="bE"/><path fill="#333" d="M24 0v-261h32V0H24" id="bF"/><path fill="#333" d="M117-194c89-4 53 116 60 194h-32v-121c0-31-8-49-39-48C34-167 62-67 57 0H25l-1-190h30c1 10-1 24 2 32 11-22 29-35 61-36" id="bG"/><g id="V"><use transform="matrix(0.06172839506172839,0,0,0.06172839506172839,0,0)" xlink:href="#bB"/><use transform="matrix(0.06172839506172839,0,0,0.06172839506172839,14.814814814814813,0)" xlink:href="#bC"/><use transform="matrix(0.06172839506172839,0,0,0.06172839506172839,19.691358024691354,0)" xlink:href="#bD"/><use transform="matrix(0.06172839506172839,0,0,0.06172839506172839,32.03703703703703,0)" xlink:href="#bE"/><use transform="matrix(0.06172839506172839,0,0,0.06172839506172839,44.38271604938271,0)" xlink:href="#bF"/><use transform="matrix(0.06172839506172839,0,0,0.06172839506172839,49.25925925925925,0)" xlink:href="#bC"/><use transform="matrix(0.06172839506172839,0,0,0.06172839506172839,54.1358024691358,0)" xlink:href="#bG"/><use transform="matrix(0.06172839506172839,0,0,0.06172839506172839,66.48148148148148,0)" xlink:href="#bE"/></g><path fill="#333" d="M197 0v-115H63V0H30v-248h33v105h134v-105h34V0h-34" id="bH"/><path fill="#333" d="M179-190L93 31C79 59 56 82 12 73V49c39 6 53-20 64-50L1-190h34L92-34l54-156h33" id="bI"/><path fill="#333" d="M114-163C36-179 61-72 57 0H25l-1-190h30c1 12-1 29 2 39 6-27 23-49 58-41v29" id="bJ"/><path fill="#333" d="M141-36C126-15 110 5 73 4 37 3 15-17 15-53c-1-64 63-63 125-63 3-35-9-54-41-54-24 1-41 7-42 31l-33-3c5-37 33-52 76-52 45 0 72 20 72 64v82c-1 20 7 32 28 27v20c-31 9-61-2-59-35zM48-53c0 20 12 33 32 33 41-3 63-29 60-74-43 2-92-5-92 41" id="bK"/><path fill="#333" d="M210-169c-67 3-38 105-44 169h-31v-121c0-29-5-50-35-48C34-165 62-65 56 0H25l-1-190h30c1 10-1 24 2 32 10-44 99-50 107 0 11-21 27-35 58-36 85-2 47 119 55 194h-31v-121c0-29-5-49-35-48" id="bL"/><path fill="#333" d="M59-47c-2 24 18 29 38 22v24C64 9 27 4 27-40v-127H5v-23h24l9-43h21v43h35v23H59v120" id="bM"/><path fill="#333" d="M135-143c-3-34-86-38-87 0 15 53 115 12 119 90S17 21 10-45l28-5c4 36 97 45 98 0-10-56-113-15-118-90-4-57 82-63 122-42 12 7 21 19 24 35" id="bN"/><g id="W"><use transform="matrix(0.06172839506172839,0,0,0.06172839506172839,0,0)" xlink:href="#bH"/><use transform="matrix(0.06172839506172839,0,0,0.06172839506172839,15.987654320987653,0)" xlink:href="#bI"/><use transform="matrix(0.06172839506172839,0,0,0.06172839506172839,27.098765432098766,0)" xlink:href="#bD"/><use transform="matrix(0.06172839506172839,0,0,0.06172839506172839,39.44444444444444,0)" xlink:href="#bE"/><use transform="matrix(0.06172839506172839,0,0,0.06172839506172839,51.79012345679012,0)" xlink:href="#bJ"/><use transform="matrix(0.06172839506172839,0,0,0.06172839506172839,59.1358024691358,0)" xlink:href="#bD"/><use transform="matrix(0.06172839506172839,0,0,0.06172839506172839,71.48148148148148,0)" xlink:href="#bK"/><use transform="matrix(0.06172839506172839,0,0,0.06172839506172839,83.82716049382717,0)" xlink:href="#bJ"/><use transform="matrix(0.06172839506172839,0,0,0.06172839506172839,91.17283950617285,0)" xlink:href="#bK"/><use transform="matrix(0.06172839506172839,0,0,0.06172839506172839,103.51851851851853,0)" xlink:href="#bL"/><use transform="matrix(0.06172839506172839,0,0,0.06172839506172839,121.97530864197532,0)" xlink:href="#bE"/><use transform="matrix(0.06172839506172839,0,0,0.06172839506172839,134.320987654321,0)" xlink:href="#bM"/><use transform="matrix(0.06172839506172839,0,0,0.06172839506172839,140.49382716049382,0)" xlink:href="#bJ"/><use transform="matrix(0.06172839506172839,0,0,0.06172839506172839,147.8395061728395,0)" xlink:href="#bE"/><use transform="matrix(0.06172839506172839,0,0,0.06172839506172839,160.18518518518516,0)" xlink:href="#bN"/></g></defs></g></svg>